<svg xmlns="http://www.w3.org/2000/svg" viewBox="0 0 640.78 300.3"><defs><style>.a{fill:#fff;}.b{fill:#d31c22;}</style></defs><polygon class="a" points="595.3 273.38 595.3 300.3 609.57 300.3 609.57 273.4 640.78 219.6 622.72 219.6 602.44 257.29 582.15 219.6 564.1 219.6 595.3 273.38"/><path class="a" d="M43,263.24,0,316.4l9.67,12.65h44v14.89H67.91v-80.7ZM53.63,274.7V315H21Z" transform="translate(0 -43.64)"/><polygon class="a" points="489.51 286.29 448.3 286.29 448.3 219.6 434.02 219.6 434.02 300.3 483.19 300.3 489.51 286.29"/><path class="a" d="M558.67,343.94h14.49l-32.39-80.68h-15L493.4,343.94h14.48l7-17.48h36.82Zm-25.4-63.29L546,312.4H520.52Z" transform="translate(0 -43.64)"/><path class="a" d="M272.31,343.94h53.13l6.32-14H286.59V310H322.9V296H286.59V277.25h38.85l6.32-14H272.31v80.7Z" transform="translate(0 -43.64)"/><path class="a" d="M184.45,263.24v80.7h14.26V316.61H218l20.9,27.33h18l-22.75-29.21a24.42,24.42,0,0,0,11.26-7.65c3.65-4.52,5.5-10.29,5.5-17.15,0-8.87-3.24-16-9.36-20.69-5.08-3.87-12.17-6-20-6Zm14.26,14h23.92c3.39,0,6.7-.06,9.4,2.13s4.57,5.24,4.57,10.44-2,8.38-4.57,10.45-6,2.12-9.4,2.12H198.71Z" transform="translate(0 -43.64)"/><path class="a" d="M365.07,277.25H389c3.39,0,6.7-.06,9.4,2.13s4.57,5.24,4.57,10.44-2,8.38-4.57,10.45-6,2.12-9.4,2.12H365.07Zm42.72-8c-5.08-3.87-12.16-6-20-6H350.73v80.7H365V316.63h22.85c7.79,0,14.87-2.14,20-6,6.13-4.67,9.37-11.82,9.37-20.69S413.92,273.91,407.79,269.24Z" transform="translate(0 -43.64)"/><path class="a" d="M124.67,263.24H95v80.7h29.72c21.38,0,38.78-18.22,38.78-40.35S146.05,263.24,124.67,263.24Zm11.51,64.55a15.28,15.28,0,0,1-8,2.15h-19V277.23h19a15.28,15.28,0,0,1,8,2.15c7.47,4.65,12.56,13.85,12.56,24.21S143.65,323.14,136.18,327.79Z" transform="translate(0 -43.64)"/><polygon class="b" points="298.55 0 359.77 0 284.05 170.06 222.83 170.06 298.55 0"/><polygon class="b" points="201.96 0 263.18 0 217.75 102.03 156.53 102.03 201.96 0"/><path class="b" d="M399.22,43.64h-5.44L318.07,213.7h81.15a85,85,0,0,0,0-170.06Z" transform="translate(0 -43.64)"/></svg>